<mxfile host="Electron" agent="Mozilla/5.0 (Macintosh; Intel Mac OS X 10_15_7) AppleWebKit/537.36 (KHTML, like Gecko) draw.io/26.2.15 Chrome/134.0.6998.205 Electron/35.2.1 Safari/537.36" version="26.2.15">
  <diagram name="Page-1" id="sVTK6OjXeKqqwBH3cTf2">
    <mxGraphModel dx="1018" dy="777" grid="1" gridSize="10" guides="1" tooltips="1" connect="1" arrows="1" fold="1" page="1" pageScale="1" pageWidth="827" pageHeight="1169" math="0" shadow="0">
      <root>
        <mxCell id="0" />
        <mxCell id="1" parent="0" />
        <mxCell id="DouczNYI_qiwRk1BUcN0-1" value="Tableau Data Model" style="text;html=1;align=center;verticalAlign=middle;resizable=0;points=[];autosize=1;strokeColor=none;fillColor=#808080;fontSize=20;gradientColor=none;fontColor=#FFFFFF;" parent="1" vertex="1">
          <mxGeometry x="50" y="33" width="200" height="40" as="geometry" />
        </mxCell>
        <mxCell id="DouczNYI_qiwRk1BUcN0-20" style="edgeStyle=orthogonalEdgeStyle;rounded=0;orthogonalLoop=1;jettySize=auto;html=1;exitX=0.5;exitY=1;exitDx=0;exitDy=0;entryX=0.5;entryY=0;entryDx=0;entryDy=0;" parent="1" source="DouczNYI_qiwRk1BUcN0-3" target="DouczNYI_qiwRk1BUcN0-8" edge="1">
          <mxGeometry relative="1" as="geometry" />
        </mxCell>
        <mxCell id="DouczNYI_qiwRk1BUcN0-21" style="edgeStyle=orthogonalEdgeStyle;rounded=0;orthogonalLoop=1;jettySize=auto;html=1;entryX=0.5;entryY=0;entryDx=0;entryDy=0;" parent="1" source="DouczNYI_qiwRk1BUcN0-3" target="DouczNYI_qiwRk1BUcN0-12" edge="1">
          <mxGeometry relative="1" as="geometry" />
        </mxCell>
        <mxCell id="DouczNYI_qiwRk1BUcN0-22" style="edgeStyle=orthogonalEdgeStyle;rounded=0;orthogonalLoop=1;jettySize=auto;html=1;exitX=0.5;exitY=1;exitDx=0;exitDy=0;entryX=0.5;entryY=0;entryDx=0;entryDy=0;" parent="1" source="DouczNYI_qiwRk1BUcN0-3" target="DouczNYI_qiwRk1BUcN0-16" edge="1">
          <mxGeometry relative="1" as="geometry" />
        </mxCell>
        <mxCell id="DouczNYI_qiwRk1BUcN0-3" value="&lt;b&gt;fact_member_contribution_performance&lt;/b&gt;" style="swimlane;fontStyle=0;childLayout=stackLayout;horizontal=1;startSize=30;horizontalStack=0;resizeParent=1;resizeParentMax=0;resizeLast=0;collapsible=1;marginBottom=0;whiteSpace=wrap;html=1;fillColor=#f5f5f5;strokeColor=#666666;fontColor=#333333;" parent="1" vertex="1">
          <mxGeometry x="310" y="110" width="250" height="140" as="geometry" />
        </mxCell>
        <mxCell id="DouczNYI_qiwRk1BUcN0-4" value="&lt;font style=&quot;font-size: 11px;&quot;&gt;member_id&lt;/font&gt;" style="text;strokeColor=none;fillColor=none;align=left;verticalAlign=middle;spacingLeft=4;spacingRight=4;overflow=hidden;points=[[0,0.5],[1,0.5]];portConstraint=eastwest;rotatable=0;whiteSpace=wrap;html=1;" parent="DouczNYI_qiwRk1BUcN0-3" vertex="1">
          <mxGeometry y="30" width="250" height="30" as="geometry" />
        </mxCell>
        <mxCell id="DouczNYI_qiwRk1BUcN0-5" value="&lt;font style=&quot;font-size: 11px;&quot;&gt;relationship_id&lt;/font&gt;" style="text;strokeColor=none;fillColor=none;align=left;verticalAlign=middle;spacingLeft=4;spacingRight=4;overflow=hidden;points=[[0,0.5],[1,0.5]];portConstraint=eastwest;rotatable=0;whiteSpace=wrap;html=1;" parent="DouczNYI_qiwRk1BUcN0-3" vertex="1">
          <mxGeometry y="60" width="250" height="30" as="geometry" />
        </mxCell>
        <mxCell id="74lWmbdsBS-1auRY4e45-1" value="&lt;font style=&quot;font-size: 11px;&quot;&gt;employment_id&lt;/font&gt;" style="text;strokeColor=none;fillColor=none;align=left;verticalAlign=middle;spacingLeft=4;spacingRight=4;overflow=hidden;points=[[0,0.5],[1,0.5]];portConstraint=eastwest;rotatable=0;whiteSpace=wrap;html=1;" vertex="1" parent="DouczNYI_qiwRk1BUcN0-3">
          <mxGeometry y="90" width="250" height="30" as="geometry" />
        </mxCell>
        <mxCell id="DouczNYI_qiwRk1BUcN0-7" value="&lt;font style=&quot;font-size: 11px;&quot;&gt;Fact table&lt;/font&gt;" style="rounded=0;whiteSpace=wrap;html=1;fillColor=#ffe6cc;strokeColor=#d79b00;" parent="DouczNYI_qiwRk1BUcN0-3" vertex="1">
          <mxGeometry y="120" width="250" height="20" as="geometry" />
        </mxCell>
        <mxCell id="DouczNYI_qiwRk1BUcN0-8" value="&lt;b&gt;dim_member&lt;/b&gt;" style="swimlane;fontStyle=0;childLayout=stackLayout;horizontal=1;startSize=30;horizontalStack=0;resizeParent=1;resizeParentMax=0;resizeLast=0;collapsible=1;marginBottom=0;whiteSpace=wrap;html=1;fillColor=#d5e8d4;strokeColor=#82b366;" parent="1" vertex="1">
          <mxGeometry x="50" y="300" width="250" height="80" as="geometry" />
        </mxCell>
        <mxCell id="DouczNYI_qiwRk1BUcN0-9" value="&lt;font style=&quot;font-size: 10px;&quot;&gt;member_id = member_id (dim_member)&lt;/font&gt;" style="text;strokeColor=none;fillColor=none;align=left;verticalAlign=middle;spacingLeft=4;spacingRight=4;overflow=hidden;points=[[0,0.5],[1,0.5]];portConstraint=eastwest;rotatable=0;whiteSpace=wrap;html=1;" parent="DouczNYI_qiwRk1BUcN0-8" vertex="1">
          <mxGeometry y="30" width="250" height="30" as="geometry" />
        </mxCell>
        <mxCell id="DouczNYI_qiwRk1BUcN0-11" value="&lt;font style=&quot;font-size: 10px;&quot;&gt;Dimension table&lt;/font&gt;" style="rounded=0;whiteSpace=wrap;html=1;fillColor=#e1d5e7;strokeColor=#9673a6;" parent="DouczNYI_qiwRk1BUcN0-8" vertex="1">
          <mxGeometry y="60" width="250" height="20" as="geometry" />
        </mxCell>
        <mxCell id="DouczNYI_qiwRk1BUcN0-12" value="&lt;b&gt;dim_employer&lt;/b&gt;" style="swimlane;fontStyle=0;childLayout=stackLayout;horizontal=1;startSize=30;horizontalStack=0;resizeParent=1;resizeParentMax=0;resizeLast=0;collapsible=1;marginBottom=0;whiteSpace=wrap;html=1;fillColor=#dae8fc;strokeColor=#6c8ebf;" parent="1" vertex="1">
          <mxGeometry x="310" y="300" width="250" height="80" as="geometry" />
        </mxCell>
        <mxCell id="DouczNYI_qiwRk1BUcN0-13" value="&lt;span style=&quot;font-size: 10px;&quot;&gt;relationship_id = relationship_id (dim_employer)&lt;/span&gt;" style="text;strokeColor=none;fillColor=none;align=left;verticalAlign=middle;spacingLeft=4;spacingRight=4;overflow=hidden;points=[[0,0.5],[1,0.5]];portConstraint=eastwest;rotatable=0;whiteSpace=wrap;html=1;" parent="DouczNYI_qiwRk1BUcN0-12" vertex="1">
          <mxGeometry y="30" width="250" height="30" as="geometry" />
        </mxCell>
        <mxCell id="DouczNYI_qiwRk1BUcN0-15" value="&lt;font style=&quot;font-size: 10px;&quot;&gt;Dimension table&lt;/font&gt;" style="rounded=0;whiteSpace=wrap;html=1;fillColor=#e1d5e7;strokeColor=#9673a6;" parent="DouczNYI_qiwRk1BUcN0-12" vertex="1">
          <mxGeometry y="60" width="250" height="20" as="geometry" />
        </mxCell>
        <mxCell id="DouczNYI_qiwRk1BUcN0-16" value="&lt;b&gt;dim_employment&lt;/b&gt;" style="swimlane;fontStyle=0;childLayout=stackLayout;horizontal=1;startSize=30;horizontalStack=0;resizeParent=1;resizeParentMax=0;resizeLast=0;collapsible=1;marginBottom=0;whiteSpace=wrap;html=1;fillColor=#f8cecc;strokeColor=#b85450;" parent="1" vertex="1">
          <mxGeometry x="570" y="300" width="250" height="80" as="geometry" />
        </mxCell>
        <mxCell id="DouczNYI_qiwRk1BUcN0-17" value="&lt;font style=&quot;font-size: 10px;&quot;&gt;employment_id = employment_id (dim_employment)&lt;/font&gt;" style="text;strokeColor=none;fillColor=none;align=left;verticalAlign=middle;spacingLeft=4;spacingRight=4;overflow=hidden;points=[[0,0.5],[1,0.5]];portConstraint=eastwest;rotatable=0;whiteSpace=wrap;html=1;" parent="DouczNYI_qiwRk1BUcN0-16" vertex="1">
          <mxGeometry y="30" width="250" height="30" as="geometry" />
        </mxCell>
        <mxCell id="DouczNYI_qiwRk1BUcN0-19" value="&lt;font style=&quot;font-size: 10px;&quot;&gt;Dimension table&lt;/font&gt;" style="rounded=0;whiteSpace=wrap;html=1;fillColor=#e1d5e7;strokeColor=#9673a6;" parent="DouczNYI_qiwRk1BUcN0-16" vertex="1">
          <mxGeometry y="60" width="250" height="20" as="geometry" />
        </mxCell>
      </root>
    </mxGraphModel>
  </diagram>
</mxfile>
